<?xml version="1.0" standalone="no"?>
<!DOCTYPE svg PUBLIC "-//W3C//DTD SVG 20010904//EN"
 "http://www.w3.org/TR/2001/REC-SVG-20010904/DTD/svg10.dtd">
<svg version="1.0" xmlns="http://www.w3.org/2000/svg"
 width="626.000000pt" height="626.000000pt" viewBox="0 0 626.000000 626.000000"
 preserveAspectRatio="xMidYMid meet">

<g transform="translate(0.000000,626.000000) scale(0.100000,-0.100000)"
fill="#000000" stroke="none">
<path d="M3035 4356 c-27 -7 -67 -20 -89 -29 -33 -15 -37 -19 -26 -32 15 -18
14 -20 -30 -39 -19 -8 -30 -15 -24 -16 9 0 9 -12 3 -41 -8 -34 -5 -62 15 -143
14 -56 26 -110 28 -121 2 -11 7 17 11 62 4 46 5 94 1 107 -5 23 -3 25 53 31
87 10 192 35 245 57 45 19 50 19 72 4 27 -17 36 -51 34 -126 0 -25 3 -66 7
-91 5 -30 3 -54 -4 -68 -8 -13 -8 -21 -2 -21 6 0 13 10 15 23 2 12 11 56 20
97 35 172 30 212 -39 288 -61 67 -168 88 -290 58z"/>
<path d="M3600 4126 c0 -2 8 -10 18 -17 15 -13 16 -12 3 4 -13 16 -21 21 -21
13z"/>
<path d="M2975 4026 c-18 -13 -14 -14 37 -17 49 -4 56 -2 55 14 -2 21 -64 24
-92 3z"/>
<path d="M3183 4025 c0 -12 14 -15 61 -15 56 1 59 2 42 15 -27 20 -103 20
-103 0z"/>
<path d="M3215 3980 c-7 -12 2 -30 16 -30 12 0 12 27 0 35 -5 3 -12 1 -16 -5z"/>
<path d="M3012 3968 c6 -18 28 -21 28 -4 0 9 -7 16 -16 16 -9 0 -14 -5 -12
-12z"/>
<path d="M2411 3734 c0 -11 3 -14 6 -6 3 7 2 16 -1 19 -3 4 -6 -2 -5 -13z"/>
<path d="M2493 3650 c0 -30 2 -43 4 -27 2 15 2 39 0 55 -2 15 -4 2 -4 -28z"/>
<path d="M3852 3635 c0 -16 2 -22 5 -12 2 9 2 23 0 30 -3 6 -5 -1 -5 -18z"/>
<path d="M2402 3630 c0 -14 2 -19 5 -12 2 6 2 18 0 25 -3 6 -5 1 -5 -13z"/>
<path d="M2897 3586 c-57 -16 -100 -54 -123 -110 -10 -23 -31 -50 -47 -61 -64
-43 -91 -112 -103 -271 -8 -92 -1 -134 21 -134 16 0 20 15 7 23 -11 7 3 217
18 263 22 68 90 142 75 81 -4 -15 1 -32 13 -47 15 -19 24 -22 48 -15 l29 8
-30 6 c-26 5 -30 11 -33 42 -3 34 -1 37 30 44 l33 8 -27 4 c-34 5 -34 8 -5 56
38 63 117 105 97 51 -13 -33 -13 -74 0 -74 6 0 10 15 10 34 0 19 9 44 20 57
l20 24 -11 -33 c-16 -47 -4 -116 31 -188 33 -67 55 -83 78 -60 14 13 13 14 -4
10 -23 -5 -54 38 -79 112 -12 37 -15 66 -10 117 4 37 3 67 -1 66 -5 0 -31 -6
-57 -13z"/>
<path d="M3300 3526 c0 -40 -7 -92 -14 -114 -19 -53 -60 -114 -71 -104 -5 4
-5 1 -1 -5 16 -28 38 -10 69 55 27 56 32 79 32 139 0 55 3 69 12 61 40 -33 16
-139 -63 -286 -25 -46 -41 -81 -35 -78 5 4 17 21 27 39 9 17 25 48 36 67 l19
35 -6 -30 c-4 -24 -3 -27 5 -12 6 9 8 27 5 38 -5 13 -3 19 3 15 16 -9 45 117
40 169 -3 25 -1 45 4 45 32 0 80 -53 92 -102 5 -24 3 -28 -14 -28 -11 0 -20
-4 -20 -10 0 -5 9 -10 20 -10 17 0 20 -7 20 -40 0 -34 -3 -40 -21 -40 -11 0
-17 -4 -14 -10 10 -17 44 -11 55 9 5 11 10 31 10 45 0 64 81 -11 98 -90 18
-84 25 -233 11 -250 -14 -17 -6 -29 16 -21 12 5 15 25 15 104 0 169 -34 263
-106 298 -33 16 -43 28 -52 60 -16 58 -45 91 -99 109 -73 25 -73 25 -73 -58z"/>
<path d="M3821 3544 c0 -11 3 -14 6 -6 3 7 2 16 -1 19 -3 4 -6 -2 -5 -13z"/>
<path d="M3842 3520 c0 -14 2 -19 5 -12 2 6 2 18 0 25 -3 6 -5 1 -5 -13z"/>
<path d="M2900 3435 c0 -8 4 -15 10 -15 5 0 7 7 4 15 -4 8 -8 15 -10 15 -2 0
-4 -7 -4 -15z"/>
<path d="M3098 3347 c-22 -18 -25 -25 -16 -41 18 -32 -44 -191 -85 -217 -12
-8 114 -240 128 -236 5 2 34 57 63 123 50 109 53 121 42 149 -6 17 -12 35 -13
42 0 7 -4 10 -8 7 -14 -8 -41 104 -30 125 8 14 4 24 -17 45 -16 14 -30 26 -33
26 -2 -1 -16 -11 -31 -23z"/>
<path d="M3397 3278 c-12 -13 -53 -84 -91 -158 -75 -151 -58 -143 23 11 29 54
55 101 59 103 4 2 6 -32 5 -77 -1 -53 -6 -83 -15 -88 -8 -6 -9 -9 -2 -9 7 0
14 -9 17 -20 4 -14 10 -18 22 -14 13 5 15 14 10 43 -15 78 -21 181 -11 191 6
6 41 10 78 10 39 0 68 4 68 10 0 6 -24 10 -54 10 -30 0 -61 3 -70 6 -9 3 -25
-4 -39 -18z"/>
<path d="M2710 3280 c0 -5 24 -10 54 -10 30 0 58 5 61 10 4 6 -17 10 -54 10
-34 0 -61 -4 -61 -10z"/>
<path d="M2785 3240 c-3 -5 0 -10 8 -10 15 0 73 -74 156 -197 23 -35 44 -63
47 -63 12 0 -125 211 -164 253 -28 29 -37 33 -47 17z"/>
<path d="M2521 3204 c0 -11 3 -14 6 -6 3 7 2 16 -1 19 -3 4 -6 -2 -5 -13z"/>
<path d="M3726 3183 c-6 -14 -5 -15 5 -6 7 7 10 15 7 18 -3 3 -9 -2 -12 -12z"/>
<path d="M2680 3110 c0 -6 33 -10 80 -10 47 0 80 4 80 10 0 6 -33 10 -80 10
-47 0 -80 -4 -80 -10z"/>
<path d="M3458 3063 c12 -2 32 -2 45 0 12 2 2 4 -23 4 -25 0 -35 -2 -22 -4z"/>
<path d="M1320 2660 l0 -30 80 0 80 0 0 -200 0 -200 30 0 30 0 0 200 0 200 80
0 80 0 0 30 0 30 -190 0 -190 0 0 -30z"/>
<path d="M2500 2459 l0 -231 128 4 c105 3 134 8 169 26 129 67 162 247 65 355
-59 64 -97 77 -239 77 l-123 0 0 -231z m260 149 c80 -41 111 -138 70 -223 -29
-61 -80 -86 -178 -88 l-77 -2 -3 168 -2 167 73 0 c56 0 83 -5 117 -22z"/>
<path d="M3095 2595 c-69 -24 -125 -105 -125 -180 0 -83 56 -158 136 -181 136
-39 254 46 254 185 0 139 -128 224 -265 176z m134 -63 c92 -49 90 -176 -2
-232 -38 -24 -66 -25 -112 -6 -44 19 -75 69 -75 121 0 52 17 84 59 112 41 28
85 29 130 5z"/>
<path d="M3546 2595 c-77 -27 -126 -96 -126 -179 0 -77 37 -137 105 -174 40
-21 141 -20 181 1 45 23 89 78 72 88 -22 15 -54 10 -73 -11 -47 -52 -141 -47
-189 11 -21 25 -26 41 -26 85 0 48 4 59 34 92 32 34 39 37 90 37 46 0 59 -4
83 -27 29 -28 48 -33 77 -22 27 10 -12 61 -68 89 -56 28 -102 31 -160 10z"/>
<path d="M4307 2596 c-156 -58 -169 -276 -22 -354 39 -20 141 -20 180 0 39 21
81 66 94 101 17 45 13 117 -10 164 -38 79 -155 122 -242 89z m127 -61 c65 -31
92 -135 50 -193 -51 -70 -141 -77 -201 -17 -29 29 -33 39 -33 88 0 45 5 61 27
87 43 51 97 63 157 35z"/>
<path d="M1730 2415 l0 -185 35 0 35 0 0 80 0 80 90 0 90 0 0 -80 0 -80 35 0
35 0 0 185 0 185 -35 0 -35 0 0 -75 0 -75 -90 0 -90 0 0 75 0 75 -35 0 -35 0
0 -185z"/>
<path d="M2145 2415 l0 -185 138 0 137 0 0 30 0 30 -105 0 -105 0 0 50 0 50
75 0 75 0 0 30 0 30 -75 0 -75 0 0 45 0 45 100 0 100 0 0 30 0 30 -132 0 -133
0 0 -185z"/>
<path d="M3830 2570 l0 -30 65 0 65 0 0 -155 0 -155 30 0 29 0 3 153 3 152 63
3 c61 3 62 3 62 32 l0 30 -160 0 -160 0 0 -30z"/>
<path d="M4650 2415 l0 -185 30 0 30 0 0 70 0 70 39 0 c37 0 40 -2 80 -70 39
-65 44 -70 77 -70 19 0 33 3 31 8 -3 4 -23 37 -46 74 l-41 68 29 15 c27 13 51
58 51 92 0 8 -7 30 -16 48 -22 47 -73 65 -179 65 l-85 0 0 -185z m192 108 c25
-23 23 -68 -4 -87 -14 -10 -44 -16 -75 -16 l-53 0 0 60 0 60 57 0 c38 0 62 -5
75 -17z"/>
<path d="M2432 2038 c-7 -7 -11 -23 -11 -37 l2 -26 4 25 c3 14 10 31 15 38 13
15 6 16 -10 0z"/>
<path d="M3453 2034 c-3 -8 -2 -19 3 -24 5 -5 9 1 9 16 0 28 -3 30 -12 8z"/>
<path d="M2499 2002 c5 -34 6 -35 9 -8 2 16 0 32 -5 37 -5 5 -7 -7 -4 -29z"/>
<path d="M3058 2005 c2 -19 6 -35 8 -35 2 0 4 16 4 35 0 19 -4 35 -8 35 -4 0
-6 -16 -4 -35z"/>
<path d="M3994 2025 c-3 -8 -4 -20 -2 -27 3 -7 7 -1 10 15 6 29 1 36 -8 12z"/>
<path d="M2650 2002 c0 -15 -5 -33 -10 -38 -7 -7 -6 -11 5 -11 11 0 15 11 15
39 0 21 -2 38 -5 38 -3 0 -5 -13 -5 -28z"/>
<path d="M2982 2000 c0 -14 2 -19 5 -12 2 6 2 18 0 25 -3 6 -5 1 -5 -13z"/>
<path d="M3142 2000 c0 -14 2 -19 5 -12 2 6 2 18 0 25 -3 6 -5 1 -5 -13z"/>
<path d="M3222 2000 c0 -14 2 -19 5 -12 2 6 2 18 0 25 -3 6 -5 1 -5 -13z"/>
<path d="M2580 1976 c0 -2 8 -10 18 -17 15 -13 16 -12 3 4 -13 16 -21 21 -21
13z"/>
<path d="M2470 1920 c-23 -7 -23 -8 -3 -9 12 -1 25 4 28 9 3 6 5 10 3 9 -2 -1
-14 -5 -28 -9z"/>
<path d="M3040 1920 c-9 -6 -10 -10 -3 -10 6 0 15 5 18 10 8 12 4 12 -15 0z"/>
</g>
</svg>
