<?xml version="1.0" standalone="no"?>
<!DOCTYPE svg PUBLIC "-//W3C//DTD SVG 20010904//EN"
 "http://www.w3.org/TR/2001/REC-SVG-20010904/DTD/svg10.dtd">
<svg version="1.0" xmlns="http://www.w3.org/2000/svg"
 width="521.000000pt" height="492.000000pt" viewBox="0 0 521.000000 492.000000"
 preserveAspectRatio="xMidYMid meet">

<g transform="translate(0.000000,492.000000) scale(0.100000,-0.100000)"
fill="#000000" stroke="none">
<path d="M2440 4813 c-225 -21 -369 -47 -544 -99 -425 -125 -783 -340 -1106
-664 -422 -423 -683 -972 -749 -1572 -14 -125 -14 -450 0 -576 47 -438 210
-868 468 -1237 147 -210 394 -459 607 -613 70 -50 74 -52 139 -52 l67 0 -68
47 c-361 246 -612 514 -822 879 -74 129 -112 208 -167 353 -37 96 -101 307
-110 364 -3 18 -12 66 -20 107 -48 245 -46 608 4 910 21 122 83 344 133 470
35 87 137 297 173 355 14 22 28 47 32 55 15 32 120 180 186 260 425 519 985
836 1637 926 168 24 491 23 650 0 677 -101 1240 -430 1676 -982 57 -72 162
-238 219 -347 146 -277 238 -560 282 -872 21 -151 24 -487 4 -635 -44 -347
-161 -703 -318 -967 -24 -41 -43 -75 -43 -78 0 -6 -84 -127 -147 -212 -29 -39
-53 -80 -53 -90 0 -10 22 -41 48 -69 26 -28 67 -73 91 -100 24 -27 78 -87 121
-134 42 -47 89 -98 103 -115 14 -16 45 -52 69 -78 43 -46 47 -48 91 -45 l46 3
-82 91 c-45 50 -155 173 -244 272 l-162 180 49 65 c253 334 428 759 491 1193
19 131 20 177 16 442 -5 315 -9 350 -67 587 -203 838 -821 1531 -1634 1830
-192 71 -444 125 -666 145 -107 9 -320 11 -400 3z"/>
<path d="M2399 4436 c-190 -40 -359 -145 -481 -300 -40 -50 -54 -60 -118 -86
-100 -39 -353 -195 -450 -277 -341 -286 -583 -677 -684 -1103 -42 -177 -51
-262 -50 -485 1 -242 16 -360 74 -565 71 -252 223 -540 389 -740 446 -538
1157 -809 1841 -704 476 74 894 305 1221 674 41 46 170 222 186 254 9 17 19
33 23 36 17 12 141 285 173 380 80 241 107 411 107 676 0 345 -60 604 -210
911 -158 323 -424 618 -731 813 l-86 54 5 42 4 41 -110 36 c-127 41 -272 111
-397 192 -176 113 -308 155 -505 161 -90 2 -157 -1 -201 -10z m-574 -512 c-9
-35 -15 -102 -15 -170 0 -92 -3 -114 -17 -125 -73 -61 -68 -249 12 -384 32
-55 97 -105 137 -105 26 0 32 -7 54 -57 63 -144 105 -219 170 -305 39 -52 48
-73 45 -105 0 -7 -28 -26 -61 -43 -33 -17 -225 -140 -427 -273 -402 -266 -445
-303 -509 -428 -65 -130 -67 -142 -73 -594 l-6 -409 -58 77 c-283 376 -426
863 -389 1325 50 624 366 1165 882 1512 66 45 262 151 268 146 1 -2 -4 -29
-13 -62z m1846 -82 c447 -292 741 -727 856 -1269 25 -119 27 -146 28 -373 0
-272 -9 -349 -70 -560 -62 -215 -190 -475 -305 -620 l-20 -25 0 347 c0 392 -7
453 -65 574 -45 94 -127 182 -237 256 -298 199 -662 436 -710 462 -77 40 -77
58 1 168 58 80 102 161 155 281 22 50 28 57 53 57 99 0 203 169 203 330 0 78
-11 114 -45 150 -20 21 -25 39 -31 116 l-7 91 39 41 c22 22 41 41 45 41 3 1
52 -30 110 -67z m-1437 -12 c170 -110 382 -170 603 -170 137 0 297 22 402 55
41 13 77 22 80 19 3 -2 5 -75 5 -162 0 -172 -18 -279 -69 -422 -98 -272 -288
-505 -482 -592 -66 -29 -179 -30 -246 0 -292 131 -529 537 -550 942 l-4 75 42
50 c54 63 121 167 137 211 7 19 14 34 17 34 2 0 32 -18 65 -40z m-337 -242 c6
-7 13 -60 16 -118 3 -58 13 -138 22 -178 18 -77 15 -93 -13 -76 -80 51 -144
255 -104 331 26 49 60 66 79 41z m1575 -20 c57 -81 -1 -298 -94 -353 -33 -19
-34 -16 -13 70 8 33 20 114 26 180 6 70 15 123 22 127 22 14 35 8 59 -24z
m-1008 -1056 c74 -36 172 -56 230 -46 90 15 209 75 291 149 l30 27 3 -92 3
-91 -48 -72 c-44 -67 -302 -337 -322 -337 -21 0 -271 262 -319 334 l-52 78 0
89 0 90 61 -49 c34 -28 89 -63 123 -80z m-245 -86 c32 -73 97 -154 238 -295
73 -74 133 -136 133 -139 0 -8 -111 -161 -121 -168 -10 -6 -71 57 -131 135
-189 248 -250 410 -199 526 30 67 44 74 53 25 4 -22 16 -60 27 -84z m936 78
c45 -91 27 -204 -55 -347 -63 -110 -239 -337 -262 -337 -4 0 -35 39 -69 86
l-62 86 131 131 c138 140 159 163 212 241 35 52 74 161 64 178 -4 6 -1 9 7 6
8 -2 23 -22 34 -44z m-1121 -93 c-95 -329 -24 -716 197 -1078 94 -153 335
-435 402 -469 l30 -16 108 110 c342 352 518 713 536 1102 5 127 -12 273 -45
373 -11 31 -15 57 -10 57 5 0 40 -31 77 -68 147 -148 221 -342 221 -580 0 -60
-3 -130 -6 -156 l-7 -46 -113 0 c-62 0 -119 -3 -128 -6 -27 -10 -18 -42 40
-150 l56 -105 -28 -37 c-66 -87 -218 -217 -369 -315 -106 -68 -307 -178 -335
-183 -46 -9 -366 179 -530 311 -65 52 -160 146 -200 197 l-21 28 53 97 c69
128 70 130 52 148 -12 12 -41 15 -130 15 -100 0 -116 2 -122 18 -4 9 -7 87 -7
172 0 119 4 173 19 230 22 87 71 199 115 263 31 46 148 167 161 167 4 0 -3
-36 -16 -79z m-226 -88 c-2 -5 -15 -30 -29 -58 -75 -141 -108 -347 -89 -544 7
-64 16 -121 21 -127 5 -6 55 -14 111 -18 57 -4 104 -9 106 -11 3 -2 -17 -43
-43 -91 -45 -85 -47 -89 -32 -118 44 -93 209 -245 402 -372 138 -90 365 -214
394 -214 52 0 347 171 526 304 98 73 243 218 270 269 l20 38 -45 86 c-25 47
-46 89 -48 93 -2 4 46 11 107 15 82 5 111 11 115 22 3 8 11 66 18 129 20 197
-17 416 -97 557 -14 26 -23 47 -20 47 3 0 27 -15 55 -32 88 -59 191 -258 236
-460 24 -104 26 -126 21 -278 -5 -170 -25 -274 -74 -389 -19 -44 -20 -44 -72
-46 -114 -4 -184 -118 -135 -221 49 -102 197 -111 261 -15 30 45 31 120 2 167
l-21 34 30 77 c118 309 103 664 -39 945 -36 72 -32 72 77 -4 91 -62 156 -133
195 -210 57 -113 59 -134 59 -588 l0 -415 -118 -115 c-65 -63 -155 -142 -200
-175 -192 -141 -448 -263 -669 -319 -312 -79 -643 -80 -954 -1 -328 82 -662
273 -896 513 l-43 43 0 428 c0 261 4 450 11 487 14 79 68 187 123 251 39 43
200 163 220 163 4 0 -4 -21 -18 -47 -129 -256 -156 -596 -69 -878 l15 -50 -36
-53 c-54 -81 -67 -146 -45 -225 15 -55 166 -277 188 -277 27 0 133 79 129 97
-7 34 -34 38 -71 10 -20 -15 -40 -27 -45 -27 -8 0 -107 141 -131 187 -6 12
-11 48 -11 80 0 143 137 232 266 174 42 -19 85 -66 150 -164 l38 -59 -39 -32
c-42 -35 -44 -66 -4 -66 27 0 119 67 119 87 0 23 -146 229 -188 263 -48 40
-99 53 -192 48 l-75 -3 -24 90 c-22 80 -25 111 -25 270 0 154 3 192 22 264 50
190 148 376 231 437 44 32 66 42 59 27z m382 -299 c30 -43 72 -101 94 -129 59
-72 171 -185 184 -185 7 0 21 9 31 19 18 18 20 19 35 2 9 -10 16 -23 16 -31 0
-13 -107 -424 -117 -450 -3 -8 -5 -20 -4 -27 8 -50 -79 50 -153 177 -50 86
-116 230 -145 317 -45 136 -61 239 -61 392 l1 136 33 -71 c18 -39 57 -107 86
-150z m1044 16 c-14 -218 -85 -434 -211 -644 -20 -34 -41 -64 -46 -67 -5 -3
-8 -9 -8 -13 2 -10 -80 -118 -85 -113 -5 5 -78 277 -116 431 -17 69 -18 81 -5
93 13 13 18 13 38 0 34 -21 54 -10 129 69 121 127 265 340 288 424 11 42 22
-83 16 -180z m487 -1009 c32 -33 36 -58 14 -100 -33 -65 -132 -56 -155 13 -30
91 74 154 141 87z"/>
<path d="M3955 19 l-30 -19 64 0 c63 0 64 0 46 20 -22 24 -41 24 -80 -1z"/>
</g>
</svg>
