<?xml version="1.0" standalone="no"?>
<!DOCTYPE svg PUBLIC "-//W3C//DTD SVG 20010904//EN"
 "http://www.w3.org/TR/2001/REC-SVG-20010904/DTD/svg10.dtd">
<svg version="1.0" xmlns="http://www.w3.org/2000/svg"
 width="629.000000pt" height="146.000000pt" viewBox="0 0 629.000000 146.000000"
 preserveAspectRatio="xMidYMid meet">

<g transform="translate(0.000000,146.000000) scale(0.100000,-0.100000)"
fill="#000000" stroke="none">
<path d="M3875 1370 c-189 -30 -344 -185 -400 -398 -18 -72 -37 -254 -30 -297
2 -16 7 -61 10 -100 6 -71 40 -186 74 -253 28 -54 94 -125 148 -160 79 -50
149 -65 277 -60 154 7 150 4 141 97 -11 129 -4 121 -98 115 -76 -5 -86 -4
-137 23 -101 52 -149 157 -157 343 -11 245 49 406 173 465 30 14 54 17 121 12
46 -2 83 -3 83 -2 0 4 28 141 35 171 4 17 -2 23 -33 32 -54 16 -150 22 -207
12z"/>
<path d="M2230 1364 c-14 -3 -44 -7 -67 -10 l-43 -5 0 -618 0 -618 46 -7 c98
-13 269 -7 347 13 94 24 127 41 184 94 132 121 191 317 180 592 -14 324 -128
502 -354 550 -62 13 -230 18 -293 9z m255 -203 c22 -10 48 -27 57 -37 33 -38
68 -132 79 -215 13 -95 7 -305 -11 -389 -16 -72 -66 -166 -102 -192 -35 -24
-94 -39 -125 -31 l-23 5 0 432 c0 238 3 436 7 439 12 13 78 6 118 -12z"/>
<path d="M4258 1362 c-17 -3 -18 -43 -18 -612 0 -335 3 -616 6 -625 5 -12 27
-15 120 -15 l114 0 0 28 c1 219 -1 1216 -3 1218 -4 4 -202 9 -219 6z"/>
<path d="M5938 1362 l-258 -2 0 -615 c0 -338 -1 -618 -2 -622 -2 -5 124 -9
280 -11 l282 -2 0 105 0 105 -162 2 -163 3 2 40 c1 22 2 97 2 168 l1 127 140
0 140 0 0 100 0 100 -140 0 -140 0 -1 128 c0 70 -2 135 -4 145 -2 9 1 18 6 18
5 1 14 3 19 4 6 1 71 3 145 4 l135 1 0 99 c0 71 -4 100 -12 102 -7 2 -129 3
-270 1z"/>
<path d="M236 1328 c-5 -29 -68 -883 -83 -1126 l-6 -92 101 0 100 0 6 73 c3
39 13 230 22 422 9 193 18 352 20 354 2 2 5 -7 8 -20 48 -250 75 -378 116
-544 26 -110 51 -215 55 -233 l7 -33 86 3 86 3 63 260 c34 143 76 327 93 410
17 82 32 150 34 152 1 2 6 -74 9 -169 11 -296 28 -632 33 -656 4 -21 8 -22
110 -22 l106 0 -6 63 c-4 34 -20 296 -36 582 -17 286 -33 539 -36 563 l-5 42
-124 0 c-109 0 -124 -2 -129 -17 -12 -40 -135 -625 -151 -718 -22 -134 -25
-148 -31 -142 -3 3 -16 59 -29 124 -23 119 -151 703 -161 736 -5 15 -20 17
-129 17 l-124 0 -5 -32z"/>
<path d="M1380 735 l1 -625 284 0 285 0 0 105 0 105 -165 0 -165 0 0 170 0
170 145 0 145 0 0 100 0 99 -142 3 -143 3 0 145 0 145 150 1 150 1 3 101 3
102 -276 0 -275 0 0 -625z"/>
<path d="M3040 735 l0 -625 120 0 120 0 0 625 0 625 -120 0 -119 0 -1 -625z"/>
<path d="M4710 735 l0 -625 107 0 106 0 -6 423 -6 422 48 -140 c59 -170 78
-221 188 -493 l86 -212 108 0 109 0 0 625 0 625 -107 0 -106 0 7 -307 c4 -170
11 -357 15 -418 5 -60 5 -113 2 -117 -4 -5 -19 29 -34 75 -15 45 -87 235 -160
422 l-133 340 -112 3 -112 3 0 -626z"/>
</g>
</svg>
